<?xml version="1.0" encoding="iso-8859-1"?>
<!-- Generator: Adobe Illustrator 19.0.0, SVG Export Plug-In . SVG Version: 6.00 Build 0)  -->
<svg version="1.1" id="Layer_1" xmlns="http://www.w3.org/2000/svg" xmlns:xlink="http://www.w3.org/1999/xlink" x="0px" y="0px"
	 viewBox="0 0 512 512" style="enable-background:new 0 0 512 512;" xml:space="preserve">
<path style="fill:#79CF00;" d="M512,395.687c0,13.216-10.714,23.93-23.93,23.93H23.93c-13.216,0-23.93-10.714-23.93-23.93V116.313
	c0-13.216,10.714-23.93,23.93-23.93H488.07c13.216,0,23.93,10.714,23.93,23.93V395.687z"/>
<path style="fill:#528443;" d="M488.07,92.383H256v327.235h232.07c13.216,0,23.93-10.714,23.93-23.93V116.313
	C512,103.097,501.286,92.383,488.07,92.383z"/>
<g>
	<rect x="51.523" y="92.193" style="fill:#BAFD57;" width="41.283" height="327.235"/>
	<rect x="143.861" y="92.572" style="fill:#BAFD57;" width="41.283" height="327.235"/>
	<rect x="236.188" y="92.193" style="fill:#BAFD57;" width="41.283" height="327.235"/>
</g>
<g>
	<rect x="256.902" y="92.193" style="fill:#62A800;" width="20.565" height="327.235"/>
	<rect x="328.526" y="92.193" style="fill:#62A800;" width="41.283" height="327.235"/>
	<rect x="420.853" y="92.572" style="fill:#62A800;" width="41.283" height="327.235"/>
</g>
<path style="fill:#FCFCFC;" d="M477.274,203.175c0-0.617-0.039-1.223-0.104-1.822v-51.092c0-9.22-7.475-16.696-16.696-16.696H51.525
	c-9.22,0-16.696,7.475-16.696,16.696v53.285v105.651v52.542c0,9.22,7.475,16.696,16.696,16.696h408.95
	c9.22,0,16.696-7.475,16.696-16.696v-51.091c0.065-0.599,0.104-1.205,0.104-1.822L477.274,203.175L477.274,203.175z
	 M443.779,292.129h-49.066v-72.259h49.066V292.129z M239.304,288.442c-11.749-6.072-19.805-18.33-19.805-32.442
	s8.056-26.371,19.805-32.442V288.442z M272.696,223.558c11.749,6.072,19.805,18.33,19.805,32.442s-8.056,26.371-19.805,32.442
	V223.558z M68.221,220.241h49.17v72.26h-49.17V220.241z M68.221,325.892h65.865c9.22,0,16.696-7.475,16.696-16.696V203.546
	c0-9.22-7.475-16.696-16.696-16.696H68.221v-19.893h171.084v21.181c-30.501,7.506-53.197,35.078-53.197,67.862
	s22.696,60.356,53.197,67.862v21.181H68.221V325.892z M272.696,345.043v-21.181c30.501-7.506,53.197-35.078,53.197-67.862
	s-22.696-60.356-53.197-67.862v-21.181h171.084v19.523h-65.762c-9.22,0-16.696,7.475-16.696,16.696v105.651
	c0,9.22,7.475,16.696,16.696,16.696h65.762v19.522H272.696z"/>
<path style="fill:#C6C5CA;" d="M477.171,201.352v-51.091c0-9.22-7.475-16.696-16.696-16.696H256.906v244.87h203.569
	c9.22,0,16.696-7.475,16.696-16.696v-51.091c0.065-0.599,0.104-1.205,0.104-1.822V203.175
	C477.274,202.558,477.236,201.952,477.171,201.352z M272.696,223.558c11.749,6.072,19.805,18.33,19.805,32.442
	s-8.056,26.371-19.805,32.442V223.558z M443.779,292.129h-49.066v-72.259h49.066V292.129z M443.779,186.479h-65.762
	c-9.22,0-16.696,7.475-16.696,16.696v105.651c0,9.22,7.475,16.696,16.696,16.696h65.762v19.522H272.696v-21.181
	c30.501-7.506,53.197-35.078,53.197-67.862s-22.696-60.356-53.197-67.862v-21.181h171.084V186.479z"/>
<g>
</g>
<g>
</g>
<g>
</g>
<g>
</g>
<g>
</g>
<g>
</g>
<g>
</g>
<g>
</g>
<g>
</g>
<g>
</g>
<g>
</g>
<g>
</g>
<g>
</g>
<g>
</g>
<g>
</g>
</svg>
